<svg version="1.1" xmlns="http://www.w3.org/2000/svg" viewBox="-8.497000081404149 -8.720202971697645 16.97988640451416 17.43544707815197" fill="none" stroke="black" stroke-width="0.6%" vector-effect="non-scaling-stroke">
    <path d="M 1.83491 6.82772 A 2.5 1.06921 0 0 1 -3.07002 6.8764 L -3.07002 -2.16289 A 2.5 1.06921 0 0 1 -6.40399 -3.17085 L -6.40399 5.86843 A 2.5 1.06921 180 0 0 -3.07002 6.8764" />
    <path d="M -7.497 4.33601 A 2.5 1.06921 180 0 0 -6.40399 5.21982" />
    <path d="M 6.01703 5.53581 A 2.5 1.06921 180 0 0 7.48289 4.56236" />
    <path d="M 6.01703 6.03675 A 2.5 1.06921 360 0 1 1.83491 6.82772 L 1.83491 -2.21156 A 2.5 1.06921 180 0 0 6.01703 -3.00254 L 6.01703 6.03675 Z" />
    <path d="M -3.07002 -2.16289 A 2.5 1.06921 180 0 0 1.83491 -2.21156" />
    <path d="M 6.01703 -3.00254 A 2.5 1.06921 180 0 0 5.77375 -3.46262" />
    <path d="M -6.40399 -3.17085 A 2.5 1.06921 0 0 1 -6.03426 -3.73043 A 2.5 1.06921 360 0 1 -7.497 -4.70327 L -7.497 4.33601" />
    <path d="M 5.85895 -5.47833 A 2.5 1.06921 360 0 1 7.48289 -4.47692 L 7.48289 4.56236" />
    <path d="M 7.48289 -4.47692 A 2.5 1.06921 360 0 1 5.77375 -3.46262" />
    <path d="M -7.497 -4.70327 A 2.5 1.06921 360 0 1 -5.6205 -5.7387 A 2.5 1.06921 360 0 1 -5.79424 -6.13033 L -5.79424 -5.71666" />
    <path d="M 2.64626 -6.95363 A 2.5 1.06921 360 0 1 6.14259 -5.973 L 6.14259 -5.42413" />
    <path d="M 6.14259 -5.973 A 2.5 1.06921 360 0 1 5.85895 -5.47833" />
    <path d="M -5.79424 -6.13033 A 2.5 1.06921 360 0 1 -2.06098 -7.06039 A 2.5 1.06921 0 0 1 2.64626 -6.95363" />
</svg>