<svg version="1.1" xmlns="http://www.w3.org/2000/svg" viewBox="-8.497000081404153 -11.44632835897776 16.979886404514158 22.885951735938573" fill="none" stroke="black" stroke-width="0.6%" vector-effect="non-scaling-stroke">
    <path d="M 1.83491 9.23959 A 2.5 1.4457 360 0 1 -3.07002 9.3054 L -3.07002 -2.93217 A 2.5 1.4457 0 0 1 -6.40399 -4.29506 L -6.40399 7.94251 A 2.5 1.4457 180 0 0 -3.07002 9.3054" />
    <path d="M -7.497 5.87049 A 2.5 1.4457 180 0 0 -6.40399 7.06551" />
    <path d="M 6.01703 7.49276 A 2.5 1.4457 180 0 0 7.48289 6.17655" />
    <path d="M 6.01703 8.17009 A 2.5 1.4457 360 0 1 1.83491 9.23959 L 1.83491 -2.99798 A 2.5 1.4457 180 0 0 6.01703 -4.06747 L 6.01703 8.17009 Z" />
    <path d="M -3.07002 -2.93217 A 2.5 1.4457 180 0 0 1.83491 -2.99798" />
    <path d="M 6.01703 -4.06747 A 2.5 1.4457 180 0 0 5.77375 -4.68956" />
    <path d="M -6.40399 -4.29506 A 2.5 1.4457 0 0 1 -6.03426 -5.05168 A 2.5 1.4457 360 0 1 -7.497 -6.36707 L -7.497 5.87049" />
    <path d="M 5.85895 -7.41505 A 2.5 1.4457 360 0 1 7.48289 -6.06102 L 7.48289 6.17655" />
    <path d="M 7.48289 -6.06102 A 2.5 1.4457 360 0 1 5.77375 -4.68956" />
    <path d="M -7.497 -6.36707 A 2.5 1.4457 360 0 1 -5.6205 -7.76709 A 2.5 1.4457 360 0 1 -5.79424 -8.29663 L -5.79424 -7.73729" />
    <path d="M 2.64626 -9.40982 A 2.5 1.4457 360 0 1 6.14259 -8.08389 L 6.14259 -7.34176" />
    <path d="M 6.14259 -8.08389 A 2.5 1.4457 360 0 1 5.85895 -7.41505" />
    <path d="M -5.79424 -8.29663 A 2.5 1.4457 360 0 1 -2.06098 -9.55418 A 2.5 1.4457 360 0 1 2.64626 -9.40982" />
</svg>